<svg width="148" height="191" viewBox="0 0 148 191" fill="none" xmlns="http://www.w3.org/2000/svg">
<path fill-rule="evenodd" clip-rule="evenodd" d="M83.4863 12.6421C88.2163 1.93983 100.763 -2.93478 111.476 1.8267C122.224 6.55563 127.133 19.1182 122.367 29.8531C118.094 39.5458 107.403 44.4379 97.458 41.7398L83.1055 70.2163C98.0639 79.8151 107.975 96.594 107.975 115.687C107.975 127.493 104.184 138.414 97.7549 147.299L117.489 158.685C122.624 154.391 129.963 153.087 136.534 155.971C145.766 160.045 149.931 170.787 145.885 180.009C141.841 189.163 131.111 193.367 121.879 189.293L121.85 189.188C112.82 185.192 108.643 174.725 112.341 165.624L92.083 153.939C82.3195 163.663 68.8557 169.674 53.9873 169.674C24.1709 169.674 0 145.503 0 115.687C3.58695e-05 85.8706 24.1709 61.6998 53.9873 61.6997C61.615 61.6997 68.8735 63.2817 75.4521 66.1353L89.7314 37.8062C82.3634 31.9648 79.5176 21.6625 83.4863 12.6421ZM54.1094 81.2369C47.1569 81.2369 40.882 82.7515 35.2861 85.7808C29.7752 88.7259 25.4093 92.8916 22.1875 98.2769C19.0504 103.578 17.4814 109.553 17.4814 116.201C17.4815 122.932 19.0926 128.949 22.3145 134.251C25.5363 139.552 30.1149 143.716 36.0498 146.746C41.9848 149.691 48.8099 151.164 56.5254 151.164C68.9041 151.164 78.3151 147.503 84.7588 140.182L74.2031 128.823C71.8292 131.095 69.2432 132.778 66.4453 133.872C63.7322 134.881 60.5951 135.386 57.0342 135.386C52.5405 135.386 48.725 134.545 45.5879 132.862C42.5357 131.179 40.289 128.654 38.8477 125.289L89.4648 115.569C89.4648 108.501 87.8536 102.4 84.6318 97.2671C81.4948 92.0501 77.2554 88.0956 71.9141 85.4029C66.5726 82.6261 60.6377 81.2369 54.1094 81.2369ZM54.1094 96.1314C58.1789 96.1314 61.6555 97.183 64.5381 99.2867C67.4207 101.39 69.3281 104.21 70.2607 107.744L36.9395 114.181C37.109 108.543 38.7623 104.125 41.8994 100.927C45.0365 97.7297 49.107 96.1314 54.1094 96.1314Z" fill="#585858"/>
</svg>
